<?xml version="1.0" encoding="utf-8"?>
<!-- Generator: Adobe Illustrator 16.0.4, SVG Export Plug-In . SVG Version: 6.00 Build 0)  -->
<!DOCTYPE svg PUBLIC "-//W3C//DTD SVG 1.1//EN" "http://www.w3.org/Graphics/SVG/1.1/DTD/svg11.dtd">
<svg version="1.1" id="Layer_1" xmlns="http://www.w3.org/2000/svg" xmlns:xlink="http://www.w3.org/1999/xlink" x="0px" y="0px"
	 width="595.275px" height="595.281px" viewBox="123.308 0 595.275 595.281" enable-background="new 123.308 0 595.275 595.281"
	 xml:space="preserve">
<g>
	<g>
		<linearGradient id="SVGID_1_" gradientUnits="userSpaceOnUse" x1="246.4231" y1="297.6394" x2="595.468" y2="297.6394">
			<stop  offset="0" style="stop-color:#FCE38A"/>
			<stop  offset="1" style="stop-color:#F38181"/>
		</linearGradient>
		<path fill="url(#SVGID_1_)" d="M489.342,157.531h82.078c13.281,0,24.046-10.767,24.046-24.046V24.046
			C595.467,10.766,584.702,0,571.421,0h-82.077c-88.69,0-160.843,72.154-160.843,160.844v58.031h-58.032
			c-13.279,0-24.046,10.767-24.046,24.046v109.438c0,13.281,10.767,24.047,24.046,24.047h58.032v194.828
			c0,13.281,10.766,24.046,24.046,24.046h109.437c13.281,0,24.047-10.765,24.047-24.046V376.406h58.031
			c11.033,0,20.652-7.509,23.329-18.215l27.359-109.438c1.795-7.184,0.182-14.795-4.375-20.63
			c-4.557-5.837-11.548-9.248-18.953-9.248h-85.392v-58.031C486.031,159.016,487.516,157.531,489.342,157.531z M461.984,266.969
			h78.639l-15.336,61.345h-63.304c-13.281,0-24.046,10.766-24.046,24.047v194.828h-61.345V352.36
			c0-13.281-10.767-24.047-24.046-24.047h-58.032v-61.345h58.032c13.279,0,24.046-10.767,24.046-24.047v-82.077
			c0-62.171,50.578-112.751,112.75-112.751h58.032v61.345h-58.032c-28.345,0-51.405,23.062-51.405,51.406v82.077
			C437.937,256.202,448.703,266.969,461.984,266.969z"/>
	</g>
</g>
</svg>
