<?xml version="1.0" encoding="utf-8"?>
<!-- Generator: Adobe Illustrator 16.0.4, SVG Export Plug-In . SVG Version: 6.00 Build 0)  -->
<!DOCTYPE svg PUBLIC "-//W3C//DTD SVG 1.1//EN" "http://www.w3.org/Graphics/SVG/1.1/DTD/svg11.dtd">
<svg version="1.1" id="Layer_1" xmlns="http://www.w3.org/2000/svg" xmlns:xlink="http://www.w3.org/1999/xlink" x="0px" y="0px"
	 width="595.279px" height="595.281px" viewBox="123.305 0 595.279 595.281" enable-background="new 123.305 0 595.279 595.281"
	 xml:space="preserve">
<g>
	<g>
		<linearGradient id="SVGID_1_" gradientUnits="userSpaceOnUse" x1="170.4685" y1="548.1179" x2="671.4222" y2="47.1642">
			<stop  offset="0" style="stop-color:#FCE38A"/>
			<stop  offset="1" style="stop-color:#F38181"/>
		</linearGradient>
		<path fill="url(#SVGID_1_)" d="M557.741,0H284.148c-88.688,0-160.843,72.154-160.843,160.844v273.594
			c0,88.688,72.154,160.844,160.843,160.844h273.594c88.688,0,160.843-72.155,160.843-160.844V160.844
			C718.584,72.154,646.43,0,557.741,0z M670.492,434.437c0,62.171-50.579,112.751-112.751,112.751H284.148
			c-62.171,0-112.751-50.579-112.751-112.751V160.844c0-62.171,50.579-112.751,112.751-112.751h273.594
			c62.171,0,112.751,50.579,112.751,112.751V434.437z"/>
	</g>
</g>
<g>
	<g>
		<linearGradient id="SVGID_2_" gradientUnits="userSpaceOnUse" x1="327.7219" y1="390.863" x2="516.5157" y2="202.0693">
			<stop  offset="0" style="stop-color:#FCE38A"/>
			<stop  offset="1" style="stop-color:#F38181"/>
		</linearGradient>
		<path fill="url(#SVGID_2_)" d="M554.169,276.877c-4.232-28.54-17.253-54.407-37.654-74.808s-46.268-33.422-74.807-37.653
			c-12.993-1.927-26.168-1.927-39.16,0c-35.271,5.231-66.392,23.883-87.632,52.52c-21.24,28.638-30.06,63.834-24.828,99.102
			c5.23,35.27,23.882,66.391,52.52,87.632c23.248,17.243,50.814,26.298,79.238,26.298c6.589,0,13.225-0.485,19.861-1.471
			c35.271-5.23,66.392-23.882,87.632-52.52C550.58,347.341,559.4,312.145,554.169,276.877z M434.654,380.924
			c-22.562,3.351-45.076-2.294-63.396-15.882c-18.319-13.588-30.251-33.497-33.596-56.059c-3.346-22.562,2.294-45.076,15.882-63.396
			c13.589-18.32,33.497-30.251,56.06-33.597c4.155-0.616,8.34-0.925,12.524-0.925s8.37,0.309,12.525,0.926
			c37.474,5.556,66.385,34.467,71.942,71.941C513.501,330.507,481.23,374.017,434.654,380.924z"/>
	</g>
</g>
<g>
	<g>
		<linearGradient id="SVGID_3_" gradientUnits="userSpaceOnUse" x1="554.4172" y1="164.1687" x2="588.4247" y2="130.1613">
			<stop  offset="0" style="stop-color:#FCE38A"/>
			<stop  offset="1" style="stop-color:#F38181"/>
		</linearGradient>
		<path fill="url(#SVGID_3_)" d="M588.424,130.161c-4.479-4.478-10.677-7.044-17.004-7.044s-12.525,2.565-17.004,7.044
			c-4.478,4.479-7.043,10.666-7.043,17.004c0,6.337,2.565,12.525,7.043,17.004c4.479,4.477,10.677,7.043,17.004,7.043
			s12.525-2.564,17.004-7.043c4.478-4.479,7.043-10.677,7.043-17.004C595.467,140.836,592.902,134.638,588.424,130.161z"/>
	</g>
</g>
</svg>
